<svg viewBox="0 0 100 100" xmlns="http://www.w3.org/2000/svg">
  <!-- Outer layer petals -->
  <path d="M50,20 Q40,35 45,50 Q50,45 55,50 Q60,35 50,20 Z" fill="#c2185b"/>
  <path d="M50,20 Q40,35 45,50 Q50,45 55,50 Q60,35 50,20 Z" fill="#c2185b" transform="rotate(36 50 50)"/>
  <path d="M50,20 Q40,35 45,50 Q50,45 55,50 Q60,35 50,20 Z" fill="#c2185b" transform="rotate(72 50 50)"/>
  <path d="M50,20 Q40,35 45,50 Q50,45 55,50 Q60,35 50,20 Z" fill="#c2185b" transform="rotate(108 50 50)"/>
  <path d="M50,20 Q40,35 45,50 Q50,45 55,50 Q60,35 50,20 Z" fill="#c2185b" transform="rotate(144 50 50)"/>
  <path d="M50,20 Q40,35 45,50 Q50,45 55,50 Q60,35 50,20 Z" fill="#c2185b" transform="rotate(180 50 50)"/>
  <path d="M50,20 Q40,35 45,50 Q50,45 55,50 Q60,35 50,20 Z" fill="#c2185b" transform="rotate(216 50 50)"/>
  <path d="M50,20 Q40,35 45,50 Q50,45 55,50 Q60,35 50,20 Z" fill="#c2185b" transform="rotate(252 50 50)"/>
  <path d="M50,20 Q40,35 45,50 Q50,45 55,50 Q60,35 50,20 Z" fill="#c2185b" transform="rotate(288 50 50)"/>
  <path d="M50,20 Q40,35 45,50 Q50,45 55,50 Q60,35 50,20 Z" fill="#c2185b" transform="rotate(324 50 50)"/>

  <!-- Middle layer petals -->
  <path d="M50,25 Q42,37 46,50 Q50,47 54,50 Q58,37 50,25 Z" fill="#e91e63" transform="rotate(18 50 50)"/>
  <path d="M50,25 Q42,37 46,50 Q50,47 54,50 Q58,37 50,25 Z" fill="#e91e63" transform="rotate(54 50 50)"/>
  <path d="M50,25 Q42,37 46,50 Q50,47 54,50 Q58,37 50,25 Z" fill="#e91e63" transform="rotate(90 50 50)"/>
  <path d="M50,25 Q42,37 46,50 Q50,47 54,50 Q58,37 50,25 Z" fill="#e91e63" transform="rotate(126 50 50)"/>
  <path d="M50,25 Q42,37 46,50 Q50,47 54,50 Q58,37 50,25 Z" fill="#e91e63" transform="rotate(162 50 50)"/>
  <path d="M50,25 Q42,37 46,50 Q50,47 54,50 Q58,37 50,25 Z" fill="#e91e63" transform="rotate(198 50 50)"/>
  <path d="M50,25 Q42,37 46,50 Q50,47 54,50 Q58,37 50,25 Z" fill="#e91e63" transform="rotate(234 50 50)"/>
  <path d="M50,25 Q42,37 46,50 Q50,47 54,50 Q58,37 50,25 Z" fill="#e91e63" transform="rotate(270 50 50)"/>
  <path d="M50,25 Q42,37 46,50 Q50,47 54,50 Q58,37 50,25 Z" fill="#e91e63" transform="rotate(306 50 50)"/>
  <path d="M50,25 Q42,37 46,50 Q50,47 54,50 Q58,37 50,25 Z" fill="#e91e63" transform="rotate(342 50 50)"/>

  <!-- Inner petals -->
  <path d="M50,32 Q45,40 47,50 Q50,48 53,50 Q55,40 50,32 Z" fill="#f48fb1"/>
  <path d="M50,32 Q45,40 47,50 Q50,48 53,50 Q55,40 50,32 Z" fill="#f48fb1" transform="rotate(45 50 50)"/>
  <path d="M50,32 Q45,40 47,50 Q50,48 53,50 Q55,40 50,32 Z" fill="#f48fb1" transform="rotate(90 50 50)"/>
  <path d="M50,32 Q45,40 47,50 Q50,48 53,50 Q55,40 50,32 Z" fill="#f48fb1" transform="rotate(135 50 50)"/>
  <path d="M50,32 Q45,40 47,50 Q50,48 53,50 Q55,40 50,32 Z" fill="#f48fb1" transform="rotate(180 50 50)"/>
  <path d="M50,32 Q45,40 47,50 Q50,48 53,50 Q55,40 50,32 Z" fill="#f48fb1" transform="rotate(225 50 50)"/>
  <path d="M50,32 Q45,40 47,50 Q50,48 53,50 Q55,40 50,32 Z" fill="#f48fb1" transform="rotate(270 50 50)"/>
  <path d="M50,32 Q45,40 47,50 Q50,48 53,50 Q55,40 50,32 Z" fill="#f48fb1" transform="rotate(315 50 50)"/>

  <!-- Center -->
  <circle cx="50" cy="50" r="7" fill="#ffd54f"/>
  <circle cx="50" cy="50" r="3" fill="#ff8f00"/>
</svg>
